<mxfile host="Electron" agent="Mozilla/5.0 (Windows NT 10.0; Win64; x64) AppleWebKit/537.36 (KHTML, like Gecko) draw.io/24.7.17 Chrome/128.0.6613.36 Electron/32.0.1 Safari/537.36" version="24.7.17">
  <diagram name="Página-1" id="cWnI_PLC-ZZ-82YnPNGV">
    <mxGraphModel dx="2307" dy="2035" grid="1" gridSize="10" guides="1" tooltips="1" connect="1" arrows="1" fold="1" page="1" pageScale="1" pageWidth="827" pageHeight="1169" math="0" shadow="0">
      <root>
        <mxCell id="0" />
        <mxCell id="1" parent="0" />
        <mxCell id="ovoxbB3lXnHQuPepbCyX-2" value="kobe_bryant_shot_prediction flow" style="swimlane;childLayout=stackLayout;resizeParent=1;resizeParentMax=0;horizontal=1;startSize=20;horizontalStack=0;html=1;" parent="1" vertex="1">
          <mxGeometry x="-273" y="-193" width="1100" height="850" as="geometry" />
        </mxCell>
        <mxCell id="ovoxbB3lXnHQuPepbCyX-3" value="Preparação Dados" style="swimlane;startSize=20;horizontal=0;html=1;" parent="ovoxbB3lXnHQuPepbCyX-2" vertex="1">
          <mxGeometry y="20" width="1100" height="190" as="geometry" />
        </mxCell>
        <mxCell id="ovoxbB3lXnHQuPepbCyX-105" value="&lt;font color=&quot;#0000cc&quot; style=&quot;font-size: 11px;&quot;&gt;node&lt;/font&gt;" style="text;html=1;align=center;verticalAlign=middle;whiteSpace=wrap;rounded=0;fontStyle=1;fontSize=11;" parent="ovoxbB3lXnHQuPepbCyX-3" vertex="1">
          <mxGeometry x="223" y="125" width="60" height="30" as="geometry" />
        </mxCell>
        <mxCell id="ovoxbB3lXnHQuPepbCyX-106" value="&lt;font color=&quot;#0000cc&quot; style=&quot;font-size: 11px;&quot;&gt;node&lt;/font&gt;" style="text;html=1;align=center;verticalAlign=middle;whiteSpace=wrap;rounded=0;fontStyle=1;fontSize=11;" parent="ovoxbB3lXnHQuPepbCyX-3" vertex="1">
          <mxGeometry x="594.5" y="127" width="60" height="30" as="geometry" />
        </mxCell>
        <mxCell id="ovoxbB3lXnHQuPepbCyX-121" value="&lt;font color=&quot;#0000cc&quot; style=&quot;font-size: 11px;&quot;&gt;entrada no catálogo&lt;/font&gt;" style="text;html=1;align=center;verticalAlign=middle;whiteSpace=wrap;rounded=0;fontStyle=1;fontSize=11;" parent="ovoxbB3lXnHQuPepbCyX-3" vertex="1">
          <mxGeometry x="62.5" y="159" width="77" height="30" as="geometry" />
        </mxCell>
        <mxCell id="ovoxbB3lXnHQuPepbCyX-122" value="&lt;font color=&quot;#0000cc&quot; style=&quot;font-size: 11px;&quot;&gt;entrada no catálogo&lt;/font&gt;" style="text;html=1;align=center;verticalAlign=middle;whiteSpace=wrap;rounded=0;fontStyle=1;fontSize=11;" parent="ovoxbB3lXnHQuPepbCyX-3" vertex="1">
          <mxGeometry x="378" y="137.5" width="77" height="30" as="geometry" />
        </mxCell>
        <mxCell id="NENAM0cKI7vAex07kB1a-30" style="edgeStyle=orthogonalEdgeStyle;rounded=0;orthogonalLoop=1;jettySize=auto;html=1;entryX=0.5;entryY=0;entryDx=0;entryDy=0;" edge="1" parent="ovoxbB3lXnHQuPepbCyX-3" source="ovoxbB3lXnHQuPepbCyX-123" target="ovoxbB3lXnHQuPepbCyX-57">
          <mxGeometry relative="1" as="geometry" />
        </mxCell>
        <mxCell id="ovoxbB3lXnHQuPepbCyX-123" value="random_state, test_size" style="shape=note;whiteSpace=wrap;html=1;backgroundOutline=1;darkOpacity=0.05;verticalAlign=top;fillStyle=auto;shadow=0;strokeColor=default;size=12;horizontal=1;labelPosition=center;verticalLabelPosition=bottom;align=center;" parent="ovoxbB3lXnHQuPepbCyX-3" vertex="1">
          <mxGeometry x="476" y="8" width="27" height="42" as="geometry" />
        </mxCell>
        <mxCell id="ovoxbB3lXnHQuPepbCyX-126" value="&lt;font style=&quot;font-size: 11px;&quot;&gt;configuração&lt;/font&gt;" style="text;html=1;align=center;verticalAlign=middle;whiteSpace=wrap;rounded=0;fontStyle=1;fontSize=11;fontColor=#FF0000;" parent="ovoxbB3lXnHQuPepbCyX-3" vertex="1">
          <mxGeometry x="503" y="8" width="77" height="30" as="geometry" />
        </mxCell>
        <mxCell id="NENAM0cKI7vAex07kB1a-2" value="&lt;font style=&quot;font-size: 11px;&quot;&gt;configuração&lt;/font&gt;" style="text;html=1;align=center;verticalAlign=middle;whiteSpace=wrap;rounded=0;fontStyle=1;fontSize=11;fontColor=#FF0000;" vertex="1" parent="ovoxbB3lXnHQuPepbCyX-3">
          <mxGeometry x="56.5" y="65" width="77" height="30" as="geometry" />
        </mxCell>
        <mxCell id="ovoxbB3lXnHQuPepbCyX-57" value="prepare_train_test_node" style="rounded=1;whiteSpace=wrap;html=1;" parent="ovoxbB3lXnHQuPepbCyX-3" vertex="1">
          <mxGeometry x="557" y="65" width="140" height="70" as="geometry" />
        </mxCell>
        <mxCell id="NENAM0cKI7vAex07kB1a-18" value="filtered_data" style="shape=note;whiteSpace=wrap;html=1;backgroundOutline=1;darkOpacity=0.05;verticalAlign=top;fillStyle=auto;shadow=0;strokeColor=default;size=12;horizontal=1;labelPosition=center;verticalLabelPosition=bottom;align=center;" vertex="1" parent="ovoxbB3lXnHQuPepbCyX-3">
          <mxGeometry x="403" y="76.5" width="27" height="42" as="geometry" />
        </mxCell>
        <mxCell id="NENAM0cKI7vAex07kB1a-19" value="train_columns" style="shape=note;whiteSpace=wrap;html=1;backgroundOutline=1;darkOpacity=0.05;verticalAlign=top;fillStyle=auto;shadow=0;strokeColor=default;size=12;horizontal=1;labelPosition=center;verticalLabelPosition=bottom;align=center;" vertex="1" parent="ovoxbB3lXnHQuPepbCyX-3">
          <mxGeometry x="81.5" y="11.5" width="27" height="42" as="geometry" />
        </mxCell>
        <mxCell id="NENAM0cKI7vAex07kB1a-23" value="raw_data_dev" style="shape=note;whiteSpace=wrap;html=1;backgroundOutline=1;darkOpacity=0.05;verticalAlign=top;fillStyle=auto;shadow=0;strokeColor=default;size=12;horizontal=1;labelPosition=center;verticalLabelPosition=bottom;align=center;" vertex="1" parent="ovoxbB3lXnHQuPepbCyX-3">
          <mxGeometry x="81.5" y="98" width="27" height="42" as="geometry" />
        </mxCell>
        <mxCell id="ovoxbB3lXnHQuPepbCyX-4" value="Treinamento" style="swimlane;startSize=20;horizontal=0;html=1;" parent="ovoxbB3lXnHQuPepbCyX-2" vertex="1">
          <mxGeometry y="210" width="1100" height="290" as="geometry" />
        </mxCell>
        <mxCell id="ovoxbB3lXnHQuPepbCyX-102" value="&lt;font color=&quot;#0000cc&quot; style=&quot;font-size: 11px;&quot;&gt;node&lt;/font&gt;" style="text;html=1;align=center;verticalAlign=middle;whiteSpace=wrap;rounded=0;fontStyle=1;fontSize=11;" parent="ovoxbB3lXnHQuPepbCyX-4" vertex="1">
          <mxGeometry x="273" y="253" width="60" height="30" as="geometry" />
        </mxCell>
        <mxCell id="ovoxbB3lXnHQuPepbCyX-103" value="&lt;font color=&quot;#0000cc&quot; style=&quot;font-size: 11px;&quot;&gt;node&lt;/font&gt;" style="text;html=1;align=center;verticalAlign=middle;whiteSpace=wrap;rounded=0;fontStyle=1;fontSize=11;" parent="ovoxbB3lXnHQuPepbCyX-4" vertex="1">
          <mxGeometry x="273" y="154" width="60" height="30" as="geometry" />
        </mxCell>
        <mxCell id="ovoxbB3lXnHQuPepbCyX-104" value="&lt;font color=&quot;#0000cc&quot; style=&quot;font-size: 11px;&quot;&gt;node&lt;/font&gt;" style="text;html=1;align=center;verticalAlign=middle;whiteSpace=wrap;rounded=0;fontStyle=1;fontSize=11;" parent="ovoxbB3lXnHQuPepbCyX-4" vertex="1">
          <mxGeometry x="713" y="207" width="60" height="30" as="geometry" />
        </mxCell>
        <mxCell id="ovoxbB3lXnHQuPepbCyX-116" value="&lt;font color=&quot;#0000cc&quot; style=&quot;font-size: 11px;&quot;&gt;entrada no catálogo&lt;/font&gt;" style="text;html=1;align=center;verticalAlign=middle;whiteSpace=wrap;rounded=0;fontStyle=1;fontSize=11;" parent="ovoxbB3lXnHQuPepbCyX-4" vertex="1">
          <mxGeometry x="523" width="77" height="30" as="geometry" />
        </mxCell>
        <mxCell id="ovoxbB3lXnHQuPepbCyX-117" value="&lt;font color=&quot;#0000cc&quot; style=&quot;font-size: 11px;&quot;&gt;entrada no catálogo&lt;/font&gt;" style="text;html=1;align=center;verticalAlign=middle;whiteSpace=wrap;rounded=0;fontStyle=1;fontSize=11;" parent="ovoxbB3lXnHQuPepbCyX-4" vertex="1">
          <mxGeometry x="523" y="90" width="77" height="30" as="geometry" />
        </mxCell>
        <mxCell id="ovoxbB3lXnHQuPepbCyX-118" value="&lt;font color=&quot;#0000cc&quot; style=&quot;font-size: 11px;&quot;&gt;entrada no catálogo&lt;/font&gt;" style="text;html=1;align=center;verticalAlign=middle;whiteSpace=wrap;rounded=0;fontStyle=1;fontSize=11;" parent="ovoxbB3lXnHQuPepbCyX-4" vertex="1">
          <mxGeometry x="523" y="190" width="77" height="30" as="geometry" />
        </mxCell>
        <mxCell id="ovoxbB3lXnHQuPepbCyX-119" value="&lt;font color=&quot;#0000cc&quot; style=&quot;font-size: 11px;&quot;&gt;entrada no catálogo&lt;/font&gt;" style="text;html=1;align=center;verticalAlign=middle;whiteSpace=wrap;rounded=0;fontStyle=1;fontSize=11;" parent="ovoxbB3lXnHQuPepbCyX-4" vertex="1">
          <mxGeometry x="853" y="230" width="77" height="30" as="geometry" />
        </mxCell>
        <mxCell id="ovoxbB3lXnHQuPepbCyX-120" value="&lt;font color=&quot;#0000cc&quot; style=&quot;font-size: 11px;&quot;&gt;entrada no catálogo&lt;/font&gt;" style="text;html=1;align=center;verticalAlign=middle;whiteSpace=wrap;rounded=0;fontStyle=1;fontSize=11;" parent="ovoxbB3lXnHQuPepbCyX-4" vertex="1">
          <mxGeometry x="53" y="230" width="77" height="30" as="geometry" />
        </mxCell>
        <mxCell id="NENAM0cKI7vAex07kB1a-6" value="metrics_paths" style="shape=note;whiteSpace=wrap;html=1;backgroundOutline=1;darkOpacity=0.05;verticalAlign=top;fillStyle=auto;shadow=0;strokeColor=default;size=20;horizontal=1;labelPosition=center;verticalLabelPosition=bottom;align=center;" vertex="1" parent="ovoxbB3lXnHQuPepbCyX-4">
          <mxGeometry x="693" y="13" width="40" height="55" as="geometry" />
        </mxCell>
        <mxCell id="NENAM0cKI7vAex07kB1a-10" value="&lt;font style=&quot;font-size: 11px;&quot;&gt;configuração&lt;/font&gt;" style="text;html=1;align=center;verticalAlign=middle;whiteSpace=wrap;rounded=0;fontStyle=1;fontSize=11;fontColor=#FF0000;" vertex="1" parent="ovoxbB3lXnHQuPepbCyX-4">
          <mxGeometry x="743" y="38" width="77" height="30" as="geometry" />
        </mxCell>
        <mxCell id="ovoxbB3lXnHQuPepbCyX-5" value="Aplicação" style="swimlane;startSize=20;horizontal=0;html=1;" parent="ovoxbB3lXnHQuPepbCyX-2" vertex="1">
          <mxGeometry y="500" width="1100" height="350" as="geometry" />
        </mxCell>
        <mxCell id="ovoxbB3lXnHQuPepbCyX-8" value="&lt;font color=&quot;#0000cc&quot; style=&quot;font-size: 11px;&quot;&gt;node&lt;/font&gt;" style="text;html=1;align=center;verticalAlign=middle;whiteSpace=wrap;rounded=0;fontStyle=1;fontSize=11;" parent="ovoxbB3lXnHQuPepbCyX-5" vertex="1">
          <mxGeometry x="853" y="181" width="60" height="30" as="geometry" />
        </mxCell>
        <mxCell id="ovoxbB3lXnHQuPepbCyX-108" value="&lt;font color=&quot;#0000cc&quot; style=&quot;font-size: 11px;&quot;&gt;node&lt;/font&gt;" style="text;html=1;align=center;verticalAlign=middle;whiteSpace=wrap;rounded=0;fontStyle=1;fontSize=11;" parent="ovoxbB3lXnHQuPepbCyX-5" vertex="1">
          <mxGeometry x="517" y="179" width="60" height="30" as="geometry" />
        </mxCell>
        <mxCell id="ovoxbB3lXnHQuPepbCyX-109" value="&lt;font color=&quot;#0000cc&quot; style=&quot;font-size: 11px;&quot;&gt;node&lt;/font&gt;" style="text;html=1;align=center;verticalAlign=middle;whiteSpace=wrap;rounded=0;fontStyle=1;fontSize=11;" parent="ovoxbB3lXnHQuPepbCyX-5" vertex="1">
          <mxGeometry x="233" y="179" width="60" height="30" as="geometry" />
        </mxCell>
        <mxCell id="ovoxbB3lXnHQuPepbCyX-114" value="&lt;font color=&quot;#0000cc&quot; style=&quot;font-size: 11px;&quot;&gt;entrada no catálogo&lt;/font&gt;" style="text;html=1;align=center;verticalAlign=middle;whiteSpace=wrap;rounded=0;fontStyle=1;fontSize=11;" parent="ovoxbB3lXnHQuPepbCyX-5" vertex="1">
          <mxGeometry x="393" y="200" width="77" height="30" as="geometry" />
        </mxCell>
        <mxCell id="ovoxbB3lXnHQuPepbCyX-113" value="&lt;font color=&quot;#0000cc&quot; style=&quot;font-size: 11px;&quot;&gt;entrada no catálogo&lt;/font&gt;" style="text;html=1;align=center;verticalAlign=middle;whiteSpace=wrap;rounded=0;fontStyle=1;fontSize=11;" parent="ovoxbB3lXnHQuPepbCyX-5" vertex="1">
          <mxGeometry x="703" y="200" width="77" height="30" as="geometry" />
        </mxCell>
        <mxCell id="ovoxbB3lXnHQuPepbCyX-112" value="&lt;font color=&quot;#0000cc&quot; style=&quot;font-size: 11px;&quot;&gt;entrada no catálogo&lt;/font&gt;" style="text;html=1;align=center;verticalAlign=middle;whiteSpace=wrap;rounded=0;fontStyle=1;fontSize=11;" parent="ovoxbB3lXnHQuPepbCyX-5" vertex="1">
          <mxGeometry x="983" y="206" width="77" height="30" as="geometry" />
        </mxCell>
        <mxCell id="ovoxbB3lXnHQuPepbCyX-115" value="&lt;font style=&quot;font-size: 11px;&quot;&gt;configuração&lt;/font&gt;" style="text;html=1;align=center;verticalAlign=middle;whiteSpace=wrap;rounded=0;fontStyle=1;fontSize=11;fontColor=#FF0000;" parent="ovoxbB3lXnHQuPepbCyX-5" vertex="1">
          <mxGeometry x="693" y="86" width="77" height="30" as="geometry" />
        </mxCell>
        <mxCell id="ovoxbB3lXnHQuPepbCyX-100" value="raw_data_prod" style="shape=note;whiteSpace=wrap;html=1;backgroundOutline=1;darkOpacity=0.05;verticalAlign=top;fillStyle=auto;shadow=0;strokeColor=default;size=12;horizontal=1;labelPosition=center;verticalLabelPosition=bottom;align=center;" parent="ovoxbB3lXnHQuPepbCyX-5" vertex="1">
          <mxGeometry x="408" y="18" width="40" height="55" as="geometry" />
        </mxCell>
        <mxCell id="NENAM0cKI7vAex07kB1a-13" value="&lt;font color=&quot;#0000cc&quot; style=&quot;font-size: 11px;&quot;&gt;entrada no catálogo&lt;/font&gt;" style="text;html=1;align=center;verticalAlign=middle;whiteSpace=wrap;rounded=0;fontStyle=1;fontSize=11;" vertex="1" parent="ovoxbB3lXnHQuPepbCyX-5">
          <mxGeometry x="393" y="93" width="77" height="30" as="geometry" />
        </mxCell>
        <mxCell id="NENAM0cKI7vAex07kB1a-15" value="train_columns" style="shape=note;whiteSpace=wrap;html=1;backgroundOutline=1;darkOpacity=0.05;verticalAlign=top;fillStyle=auto;shadow=0;strokeColor=default;size=20;horizontal=1;labelPosition=center;verticalLabelPosition=bottom;align=center;" vertex="1" parent="ovoxbB3lXnHQuPepbCyX-5">
          <mxGeometry x="412.25" y="243" width="38.5" height="50" as="geometry" />
        </mxCell>
        <mxCell id="NENAM0cKI7vAex07kB1a-17" value="&lt;font style=&quot;font-size: 11px;&quot;&gt;configuração&lt;/font&gt;" style="text;html=1;align=center;verticalAlign=middle;whiteSpace=wrap;rounded=0;fontStyle=1;fontSize=11;fontColor=#FF0000;" vertex="1" parent="ovoxbB3lXnHQuPepbCyX-5">
          <mxGeometry x="393" y="313" width="77" height="30" as="geometry" />
        </mxCell>
        <mxCell id="ovoxbB3lXnHQuPepbCyX-48" style="edgeStyle=orthogonalEdgeStyle;rounded=0;orthogonalLoop=1;jettySize=auto;html=1;" parent="1" source="ovoxbB3lXnHQuPepbCyX-32" target="ovoxbB3lXnHQuPepbCyX-46" edge="1">
          <mxGeometry relative="1" as="geometry" />
        </mxCell>
        <mxCell id="ovoxbB3lXnHQuPepbCyX-32" value="train_logistic_regression_node" style="rounded=1;whiteSpace=wrap;html=1;imageWidth=24;" parent="1" vertex="1">
          <mxGeometry x="-58" y="108" width="188" height="72" as="geometry" />
        </mxCell>
        <mxCell id="ovoxbB3lXnHQuPepbCyX-49" style="edgeStyle=orthogonalEdgeStyle;rounded=0;orthogonalLoop=1;jettySize=auto;html=1;" parent="1" source="ovoxbB3lXnHQuPepbCyX-35" target="ovoxbB3lXnHQuPepbCyX-42" edge="1">
          <mxGeometry relative="1" as="geometry" />
        </mxCell>
        <mxCell id="ovoxbB3lXnHQuPepbCyX-35" value="train_decision_tree_node" style="rounded=1;whiteSpace=wrap;html=1;" parent="1" vertex="1">
          <mxGeometry x="-60" y="210" width="190" height="70" as="geometry" />
        </mxCell>
        <mxCell id="ovoxbB3lXnHQuPepbCyX-36" value="select_best_model_node" style="rounded=1;whiteSpace=wrap;html=1;" parent="1" vertex="1">
          <mxGeometry x="394" y="162.5" width="140" height="70" as="geometry" />
        </mxCell>
        <mxCell id="ovoxbB3lXnHQuPepbCyX-37" style="edgeStyle=orthogonalEdgeStyle;rounded=0;orthogonalLoop=1;jettySize=auto;html=1;entryX=0;entryY=0.5;entryDx=0;entryDy=0;" parent="1" source="ovoxbB3lXnHQuPepbCyX-38" target="ovoxbB3lXnHQuPepbCyX-36" edge="1">
          <mxGeometry relative="1" as="geometry" />
        </mxCell>
        <mxCell id="ovoxbB3lXnHQuPepbCyX-38" value="test_data" style="shape=note;whiteSpace=wrap;html=1;backgroundOutline=1;darkOpacity=0.05;verticalAlign=top;fillStyle=auto;shadow=0;strokeColor=default;size=20;horizontal=1;labelPosition=center;verticalLabelPosition=bottom;align=center;" parent="1" vertex="1">
          <mxGeometry x="210" y="26" width="40" height="55" as="geometry" />
        </mxCell>
        <mxCell id="ovoxbB3lXnHQuPepbCyX-39" value="final_model" style="shape=note;whiteSpace=wrap;html=1;backgroundOutline=1;darkOpacity=0.05;verticalAlign=top;fillStyle=auto;shadow=0;strokeColor=default;size=20;horizontal=1;labelPosition=center;verticalLabelPosition=bottom;align=center;" parent="1" vertex="1">
          <mxGeometry x="600" y="170" width="40" height="55" as="geometry" />
        </mxCell>
        <mxCell id="ovoxbB3lXnHQuPepbCyX-41" style="edgeStyle=orthogonalEdgeStyle;rounded=0;orthogonalLoop=1;jettySize=auto;html=1;entryX=0;entryY=0.5;entryDx=0;entryDy=0;entryPerimeter=0;" parent="1" source="ovoxbB3lXnHQuPepbCyX-36" target="ovoxbB3lXnHQuPepbCyX-39" edge="1">
          <mxGeometry relative="1" as="geometry" />
        </mxCell>
        <mxCell id="ovoxbB3lXnHQuPepbCyX-50" style="edgeStyle=orthogonalEdgeStyle;rounded=0;orthogonalLoop=1;jettySize=auto;html=1;entryX=0;entryY=0.5;entryDx=0;entryDy=0;" parent="1" source="ovoxbB3lXnHQuPepbCyX-42" target="ovoxbB3lXnHQuPepbCyX-36" edge="1">
          <mxGeometry relative="1" as="geometry" />
        </mxCell>
        <mxCell id="ovoxbB3lXnHQuPepbCyX-42" value="decision_tree_model" style="shape=note;whiteSpace=wrap;html=1;backgroundOutline=1;darkOpacity=0.05;verticalAlign=top;fillStyle=auto;shadow=0;strokeColor=default;size=20;horizontal=1;labelPosition=center;verticalLabelPosition=bottom;align=center;" parent="1" vertex="1">
          <mxGeometry x="213" y="218" width="40" height="55" as="geometry" />
        </mxCell>
        <mxCell id="ovoxbB3lXnHQuPepbCyX-45" style="edgeStyle=orthogonalEdgeStyle;rounded=0;orthogonalLoop=1;jettySize=auto;html=1;" parent="1" source="ovoxbB3lXnHQuPepbCyX-43" target="ovoxbB3lXnHQuPepbCyX-32" edge="1">
          <mxGeometry relative="1" as="geometry" />
        </mxCell>
        <mxCell id="ovoxbB3lXnHQuPepbCyX-47" style="edgeStyle=orthogonalEdgeStyle;rounded=0;orthogonalLoop=1;jettySize=auto;html=1;" parent="1" source="ovoxbB3lXnHQuPepbCyX-43" target="ovoxbB3lXnHQuPepbCyX-35" edge="1">
          <mxGeometry relative="1" as="geometry" />
        </mxCell>
        <mxCell id="ovoxbB3lXnHQuPepbCyX-43" value="train_data" style="shape=note;whiteSpace=wrap;html=1;backgroundOutline=1;darkOpacity=0.05;verticalAlign=top;fillStyle=auto;shadow=0;strokeColor=default;size=20;horizontal=1;labelPosition=center;verticalLabelPosition=bottom;align=center;" parent="1" vertex="1">
          <mxGeometry x="-200" y="170" width="40" height="55" as="geometry" />
        </mxCell>
        <mxCell id="ovoxbB3lXnHQuPepbCyX-51" style="edgeStyle=orthogonalEdgeStyle;rounded=0;orthogonalLoop=1;jettySize=auto;html=1;entryX=0;entryY=0.5;entryDx=0;entryDy=0;" parent="1" source="ovoxbB3lXnHQuPepbCyX-46" target="ovoxbB3lXnHQuPepbCyX-36" edge="1">
          <mxGeometry relative="1" as="geometry" />
        </mxCell>
        <mxCell id="ovoxbB3lXnHQuPepbCyX-46" value="logistic_model" style="shape=note;whiteSpace=wrap;html=1;backgroundOutline=1;darkOpacity=0.05;verticalAlign=top;fillStyle=auto;shadow=0;strokeColor=default;size=20;horizontal=1;labelPosition=center;verticalLabelPosition=bottom;align=center;" parent="1" vertex="1">
          <mxGeometry x="210" y="117" width="40" height="55" as="geometry" />
        </mxCell>
        <mxCell id="ovoxbB3lXnHQuPepbCyX-52" style="edgeStyle=orthogonalEdgeStyle;rounded=0;orthogonalLoop=1;jettySize=auto;html=1;" parent="1" source="ovoxbB3lXnHQuPepbCyX-53" target="NENAM0cKI7vAex07kB1a-18" edge="1">
          <mxGeometry relative="1" as="geometry">
            <mxPoint x="127" y="-74.5" as="targetPoint" />
          </mxGeometry>
        </mxCell>
        <mxCell id="ovoxbB3lXnHQuPepbCyX-53" value="clean_data_node" style="rounded=1;whiteSpace=wrap;html=1;imageWidth=24;" parent="1" vertex="1">
          <mxGeometry x="-84" y="-110" width="143" height="70" as="geometry" />
        </mxCell>
        <mxCell id="ovoxbB3lXnHQuPepbCyX-72" style="edgeStyle=orthogonalEdgeStyle;rounded=0;orthogonalLoop=1;jettySize=auto;html=1;" parent="1" source="ovoxbB3lXnHQuPepbCyX-57" target="ovoxbB3lXnHQuPepbCyX-71" edge="1">
          <mxGeometry relative="1" as="geometry" />
        </mxCell>
        <mxCell id="ovoxbB3lXnHQuPepbCyX-60" value="train_data" style="shape=note;whiteSpace=wrap;html=1;backgroundOutline=1;darkOpacity=0.05;verticalAlign=top;fillStyle=auto;shadow=0;strokeColor=default;size=20;horizontal=1;labelPosition=center;verticalLabelPosition=bottom;align=center;" parent="1" vertex="1">
          <mxGeometry x="599" y="-63" width="40" height="55" as="geometry" />
        </mxCell>
        <mxCell id="ovoxbB3lXnHQuPepbCyX-62" style="edgeStyle=orthogonalEdgeStyle;rounded=0;orthogonalLoop=1;jettySize=auto;html=1;entryX=0;entryY=0.5;entryDx=0;entryDy=0;entryPerimeter=0;" parent="1" source="ovoxbB3lXnHQuPepbCyX-57" target="ovoxbB3lXnHQuPepbCyX-60" edge="1">
          <mxGeometry relative="1" as="geometry" />
        </mxCell>
        <mxCell id="ovoxbB3lXnHQuPepbCyX-71" value="test_data" style="shape=note;whiteSpace=wrap;html=1;backgroundOutline=1;darkOpacity=0.05;verticalAlign=top;fillStyle=auto;shadow=0;strokeColor=default;size=20;horizontal=1;labelPosition=center;verticalLabelPosition=bottom;align=center;" parent="1" vertex="1">
          <mxGeometry x="599" y="-151" width="40" height="55" as="geometry" />
        </mxCell>
        <mxCell id="ovoxbB3lXnHQuPepbCyX-87" style="edgeStyle=orthogonalEdgeStyle;rounded=0;orthogonalLoop=1;jettySize=auto;html=1;" parent="1" source="ovoxbB3lXnHQuPepbCyX-88" target="ovoxbB3lXnHQuPepbCyX-90" edge="1">
          <mxGeometry relative="1" as="geometry" />
        </mxCell>
        <mxCell id="ovoxbB3lXnHQuPepbCyX-88" value="load_best_model_node" style="rounded=1;whiteSpace=wrap;html=1;imageWidth=24;" parent="1" vertex="1">
          <mxGeometry x="-74" y="426" width="143" height="70" as="geometry" />
        </mxCell>
        <mxCell id="ovoxbB3lXnHQuPepbCyX-89" style="edgeStyle=orthogonalEdgeStyle;rounded=0;orthogonalLoop=1;jettySize=auto;html=1;" parent="1" source="ovoxbB3lXnHQuPepbCyX-90" target="ovoxbB3lXnHQuPepbCyX-91" edge="1">
          <mxGeometry relative="1" as="geometry" />
        </mxCell>
        <mxCell id="ovoxbB3lXnHQuPepbCyX-90" value="best_model" style="shape=note;whiteSpace=wrap;html=1;backgroundOutline=1;darkOpacity=0.05;verticalAlign=top;fillStyle=auto;shadow=0;strokeColor=default;size=20;horizontal=1;labelPosition=center;verticalLabelPosition=bottom;align=center;" parent="1" vertex="1">
          <mxGeometry x="137" y="434" width="40" height="55" as="geometry" />
        </mxCell>
        <mxCell id="ovoxbB3lXnHQuPepbCyX-91" value="apply_model_node" style="rounded=1;whiteSpace=wrap;html=1;" parent="1" vertex="1">
          <mxGeometry x="241" y="426" width="140" height="70" as="geometry" />
        </mxCell>
        <mxCell id="ovoxbB3lXnHQuPepbCyX-92" value="log_metrics_node" style="rounded=1;whiteSpace=wrap;html=1;" parent="1" vertex="1">
          <mxGeometry x="536" y="426" width="140" height="70" as="geometry" />
        </mxCell>
        <mxCell id="ovoxbB3lXnHQuPepbCyX-93" style="edgeStyle=orthogonalEdgeStyle;rounded=0;orthogonalLoop=1;jettySize=auto;html=1;entryX=0;entryY=0.5;entryDx=0;entryDy=0;" parent="1" source="ovoxbB3lXnHQuPepbCyX-94" target="ovoxbB3lXnHQuPepbCyX-92" edge="1">
          <mxGeometry relative="1" as="geometry" />
        </mxCell>
        <mxCell id="ovoxbB3lXnHQuPepbCyX-94" value="prod_predictions" style="shape=note;whiteSpace=wrap;html=1;backgroundOutline=1;darkOpacity=0.05;verticalAlign=top;fillStyle=auto;shadow=0;strokeColor=default;size=20;horizontal=1;labelPosition=center;verticalLabelPosition=bottom;align=center;" parent="1" vertex="1">
          <mxGeometry x="444" y="433.5" width="40" height="55" as="geometry" />
        </mxCell>
        <mxCell id="ovoxbB3lXnHQuPepbCyX-95" value="metrics" style="shape=note;whiteSpace=wrap;html=1;backgroundOutline=1;darkOpacity=0.05;verticalAlign=top;fillStyle=auto;shadow=0;strokeColor=default;size=20;horizontal=1;labelPosition=center;verticalLabelPosition=bottom;align=center;" parent="1" vertex="1">
          <mxGeometry x="730" y="433.5" width="40" height="55" as="geometry" />
        </mxCell>
        <mxCell id="ovoxbB3lXnHQuPepbCyX-96" style="edgeStyle=orthogonalEdgeStyle;rounded=0;orthogonalLoop=1;jettySize=auto;html=1;entryX=0;entryY=0.5;entryDx=0;entryDy=0;entryPerimeter=0;" parent="1" source="ovoxbB3lXnHQuPepbCyX-91" target="ovoxbB3lXnHQuPepbCyX-94" edge="1">
          <mxGeometry relative="1" as="geometry" />
        </mxCell>
        <mxCell id="ovoxbB3lXnHQuPepbCyX-97" style="edgeStyle=orthogonalEdgeStyle;rounded=0;orthogonalLoop=1;jettySize=auto;html=1;entryX=0;entryY=0.5;entryDx=0;entryDy=0;entryPerimeter=0;" parent="1" source="ovoxbB3lXnHQuPepbCyX-92" target="ovoxbB3lXnHQuPepbCyX-95" edge="1">
          <mxGeometry relative="1" as="geometry" />
        </mxCell>
        <mxCell id="ovoxbB3lXnHQuPepbCyX-101" style="edgeStyle=orthogonalEdgeStyle;rounded=0;orthogonalLoop=1;jettySize=auto;html=1;" parent="1" source="ovoxbB3lXnHQuPepbCyX-98" target="ovoxbB3lXnHQuPepbCyX-92" edge="1">
          <mxGeometry relative="1" as="geometry" />
        </mxCell>
        <mxCell id="ovoxbB3lXnHQuPepbCyX-98" value="prod_predictions_path" style="shape=note;whiteSpace=wrap;html=1;backgroundOutline=1;darkOpacity=0.05;verticalAlign=top;fillStyle=auto;shadow=0;strokeColor=default;size=20;horizontal=1;labelPosition=center;verticalLabelPosition=bottom;align=center;" parent="1" vertex="1">
          <mxGeometry x="444" y="321" width="40" height="55" as="geometry" />
        </mxCell>
        <mxCell id="ovoxbB3lXnHQuPepbCyX-99" style="edgeStyle=orthogonalEdgeStyle;rounded=0;orthogonalLoop=1;jettySize=auto;html=1;entryX=0.5;entryY=0;entryDx=0;entryDy=0;" parent="1" source="ovoxbB3lXnHQuPepbCyX-100" target="ovoxbB3lXnHQuPepbCyX-91" edge="1">
          <mxGeometry relative="1" as="geometry" />
        </mxCell>
        <mxCell id="NENAM0cKI7vAex07kB1a-9" style="edgeStyle=orthogonalEdgeStyle;rounded=0;orthogonalLoop=1;jettySize=auto;html=1;entryX=0.324;entryY=0.061;entryDx=0;entryDy=0;entryPerimeter=0;" edge="1" parent="1" source="NENAM0cKI7vAex07kB1a-6" target="ovoxbB3lXnHQuPepbCyX-36">
          <mxGeometry relative="1" as="geometry" />
        </mxCell>
        <mxCell id="NENAM0cKI7vAex07kB1a-16" style="edgeStyle=orthogonalEdgeStyle;rounded=0;orthogonalLoop=1;jettySize=auto;html=1;" edge="1" parent="1" source="NENAM0cKI7vAex07kB1a-15" target="ovoxbB3lXnHQuPepbCyX-91">
          <mxGeometry relative="1" as="geometry" />
        </mxCell>
        <mxCell id="NENAM0cKI7vAex07kB1a-25" style="edgeStyle=orthogonalEdgeStyle;rounded=0;orthogonalLoop=1;jettySize=auto;html=1;entryX=0;entryY=0.5;entryDx=0;entryDy=0;" edge="1" parent="1" source="NENAM0cKI7vAex07kB1a-23" target="ovoxbB3lXnHQuPepbCyX-53">
          <mxGeometry relative="1" as="geometry" />
        </mxCell>
        <mxCell id="NENAM0cKI7vAex07kB1a-26" style="edgeStyle=orthogonalEdgeStyle;rounded=0;orthogonalLoop=1;jettySize=auto;html=1;entryX=0;entryY=0.5;entryDx=0;entryDy=0;" edge="1" parent="1" source="NENAM0cKI7vAex07kB1a-19" target="ovoxbB3lXnHQuPepbCyX-53">
          <mxGeometry relative="1" as="geometry" />
        </mxCell>
      </root>
    </mxGraphModel>
  </diagram>
</mxfile>
